<svg width="20" height="20" viewBox="0 0 20 20" fill="none" xmlns="http://www.w3.org/2000/svg">
<path d="M7.96578 0.036377C12.0487 0.036377 15.3731 3.36079 15.3731 7.44372C15.3731 9.21778 14.7509 10.8437 13.7065 12.12L19.6094 18.0214L18.5435 19.0881L12.6413 13.1851C11.3231 14.2658 9.67031 14.8547 7.96578 14.8511C3.88285 14.8511 0.558438 11.5266 0.558438 7.44372C0.558438 3.36079 3.88285 0.036377 7.96578 0.036377ZM7.96578 1.51785C4.68433 1.51785 2.03991 4.16227 2.03991 7.44372C2.03991 10.7252 4.68433 13.3696 7.96578 13.3696C11.2472 13.3696 13.8916 10.7252 13.8916 7.44372C13.8916 4.16227 11.2472 1.51785 7.96578 1.51785Z" fill="#111111"/>
</svg>
