<svg width="13" height="13" viewBox="0 0 13 13" fill="none" xmlns="http://www.w3.org/2000/svg">
<path d="M6.60352 0.306641C4.29052 0.306641 2.40352 2.10202 2.40352 4.30272C2.40352 5.67851 3.14152 6.90017 4.25992 7.62118C2.11972 8.4946 0.603516 10.5155 0.603516 12.8657H1.80352C1.80352 10.3368 3.94552 8.2988 6.60352 8.2988C9.26152 8.2988 11.4035 10.3368 11.4035 12.8657H12.6035C12.6035 10.5155 11.0873 8.49518 8.94712 7.6206C9.51793 7.25398 9.9856 6.75985 10.3092 6.18144C10.6329 5.60303 10.8026 4.95798 10.8035 4.30272C10.8035 2.10202 8.91652 0.306641 6.60352 0.306641ZM6.60352 1.44838C8.26732 1.44838 9.60352 2.7197 9.60352 4.30272C9.60352 5.88574 8.26732 7.15706 6.60352 7.15706C4.93972 7.15706 3.60352 5.88574 3.60352 4.30272C3.60352 2.7197 4.93972 1.44838 6.60352 1.44838Z" fill="#111111"/>
</svg>
